<?xml version="1.0" encoding="UTF-8"?>
<svg width="399px" height="280px" viewBox="0 0 399 280" version="1.1" xmlns="http://www.w3.org/2000/svg" xmlns:xlink="http://www.w3.org/1999/xlink">
    <title>Opps! Something Went Wrong</title>
    <g id="Vendor-Portal" stroke="none" stroke-width="1" fill="none" fill-rule="evenodd">
        <g id="Error_page" transform="translate(-670, -165)">
            <g id="Opps!-Something-Went-Wrong" transform="translate(671, 165)">
                <path d="M398,197.731652 C398.018241,199.260765 397.734306,200.778639 397.163134,202.197349 C396.591962,203.616059 395.744778,204.906517 394.671107,205.99468 C393.598095,207.082842 392.319066,207.946893 390.909955,208.535929 C389.500183,209.125626 387.987402,209.429068 386.460095,209.428407 L304.04425,209.428407 C305.2414,211.619938 305.697678,214.141354 305.343749,216.614511 C304.990481,219.087007 303.846156,221.379023 302.082455,223.14613 C301.408934,223.817142 300.657496,224.404855 299.844649,224.89671 L315.069523,224.89671 C321.437597,224.89671 326.827745,229.929627 326.909624,236.298617 C326.928112,237.82773 326.643517,239.345604 326.072345,240.764314 C325.500512,242.182363 324.653989,243.473482 323.580317,244.561644 C322.507306,245.649807 321.228937,246.514519 319.819826,247.104216 C318.410054,247.694574 316.897934,248 315.370626,248 L239.691971,248 C237.166268,248 234.710558,247.169665 232.701221,245.637246 C230.691883,244.105489 229.240512,241.955608 228.568972,239.51815 C227.896772,237.080693 228.042701,234.489861 228.982989,232.142973 C229.923277,229.796086 231.606419,227.823378 233.774892,226.52631 L188.439674,226.52631 C182.0716,226.52631 176.681452,221.493393 176.599573,215.124403 C176.57316,213.061786 177.09811,211.030241 178.121598,209.239995 C179.144425,207.44975 180.626831,205.966252 182.416284,204.943538 C180.541651,203.969745 178.970762,202.498809 177.87398,200.692036 C176.777858,198.884602 176.198101,196.810747 176.198762,194.696565 L176.198762,180.54913 C176.196781,178.742357 176.618722,176.960706 177.430909,175.347634 C178.243096,173.733901 179.422418,172.334362 180.874449,171.261405 L99.4048354,171.261405 C93.0427044,171.261405 87.6591595,166.241049 87.5647345,159.878009 C87.5416235,158.346251 87.8235779,156.825733 88.3934293,155.404378 C88.9639411,153.983024 89.8104645,152.6886 90.884136,151.598454 C91.9584678,150.507647 93.2381575,149.641613 94.6499101,149.050593 C96.0616627,148.459574 97.5764243,148.156132 99.1063732,148.156793 L104.864316,148.156793 C107.228243,148.156793 109.495763,147.216716 111.167679,145.542823 C112.839596,143.86893 113.778563,141.59873 113.778563,139.232009 L113.778563,139.225398 C113.778563,136.858678 112.839596,134.588477 111.167679,132.914585 C109.495763,131.240692 107.228243,130.300615 104.864316,130.300615 L66.5363562,130.300615 C63.4764584,130.300615 60.5426807,129.083539 58.3788297,126.917791 C56.2156392,124.752044 55,121.814137 55,118.750623 C55,115.687769 56.2156392,112.749863 58.3788297,110.584115 C60.5426807,108.418368 63.4764584,107.201291 66.5363562,107.201291 L121.953258,107.201291 C125.012495,107.201953 127.946933,105.986199 130.111445,103.820451 C132.275296,101.655365 133.491595,98.7174583 133.492255,95.6546048 C133.492916,92.5914207 132.278597,89.653448 130.115407,87.4869072 C127.952876,85.3203664 125.018438,84.1027615 121.959201,84.1019682 L106.1308,84.1019682 C99.7561228,84.1019682 94.3659748,79.0564905 94.2973021,72.6749397 C94.2807942,71.1474795 94.5667104,69.631919 95.1392032,68.2159856 C95.7116959,66.8000521 96.5588795,65.5119084 97.6318907,64.4260597 C98.7055623,63.340211 99.9826107,62.4783414 101.391062,61.8902312 C102.798852,61.302121 104.309652,61 105.835639,61 L211.089785,61 C217.288818,61 222.610293,65.7757514 222.909416,71.9814509 C223.011104,74.0289285 222.567373,76.066688 221.624443,77.8863522 L357.371256,77.8863522 C360.430494,77.8863522 363.364932,79.1031638 365.528122,81.2691758 C367.691973,83.4351216 368.906952,86.3728298 368.906952,89.4360139 C368.906952,92.4991979 367.691973,95.4371045 365.528122,97.602852 C363.364932,99.7685995 360.430494,100.985676 357.371256,100.985676 L307.090281,100.985676 C307.08764,103.470732 306.10113,105.85398 304.346014,107.611832 C302.590898,109.369022 300.211124,110.35802 297.729001,110.361326 L241.052219,110.361326 C242.731399,111.948615 243.896194,114.004621 244.395392,116.262922 C244.89459,118.520561 244.704419,120.876704 243.850632,123.025263 C242.997506,125.173822 241.518401,127.016294 239.606791,128.314024 C237.69518,129.611754 235.438225,130.305242 233.128444,130.30392 L217.280894,130.30392 C216.656897,130.303259 216.038842,130.424901 215.462388,130.663556 C214.885933,130.90155 214.361643,131.251269 213.919893,131.692881 C213.478803,132.133831 213.128176,132.65808 212.889142,133.234555 C212.650108,133.811691 212.526629,134.429815 212.526629,135.05455 L212.526629,135.06116 C212.526629,135.685895 212.650108,136.304019 212.889142,136.881155 C213.128176,137.45763 213.478803,137.981879 213.919893,138.422829 C214.361643,138.86444 214.885933,139.21416 215.462388,139.452154 C216.038842,139.690809 216.656897,139.812451 217.280894,139.81179 L345.91942,139.81179 C348.978658,139.81179 351.913096,141.028866 354.076286,143.194613 C356.240137,145.360361 357.455116,148.298267 357.455116,151.361121 C357.455116,154.424635 356.240137,157.362542 354.076286,159.528289 C351.913096,161.694037 348.978658,162.911113 345.91942,162.911113 L312.652111,162.911113 C314.339215,163.944405 315.732479,165.394186 316.699839,167.121628 C317.66654,168.849069 318.174322,170.795994 318.174322,172.775974 L318.174322,176.070211 C318.174982,178.189681 317.593245,180.268164 316.49184,182.078243 C315.391096,183.88766 313.812944,185.359258 311.931708,186.330406 L386.158991,186.330406 C392.527065,186.330406 397.917213,191.363323 398,197.732313" id="Path" fill="#FFFFFF" fill-rule="nonzero" opacity="0.642996652"></path>
                <line x1="322.5" y1="128" x2="322.5" y2="142" id="Path" stroke="#2F58CD" stroke-width="1.4" stroke-linecap="round"></line>
                <line x1="316" y1="134.5" x2="330" y2="134.5" id="Path" stroke="#2F58CD" stroke-width="1.4" stroke-linecap="round"></line>
                <line x1="92.5" y1="34" x2="92.5" y2="47" id="Path" stroke="#2F58CD" stroke-width="1.4" stroke-linecap="round"></line>
                <line x1="86" y1="40.5" x2="99" y2="40.5" id="Path" stroke="#2F58CD" stroke-width="1.4" stroke-linecap="round"></line>
                <path d="M340,53.5 C340,55.1811766 339.501195,56.8245727 338.567449,58.2223937 C337.63303,59.6202148 336.305348,60.7096722 334.752465,61.3530208 C333.19891,61.9963694 331.490066,62.164635 329.841052,61.8366415 C328.19271,61.5085808 326.678145,60.6989834 325.489618,59.5101666 C324.300419,58.3213498 323.491037,56.8067579 323.162982,55.1578494 C322.8356,53.5089408 323.003661,51.7998654 323.646998,50.2466861 C324.290335,48.693574 325.380042,47.3660708 326.778309,46.4321734 C328.175904,45.4982759 329.81954,45 331.500822,45 C332.616747,45 333.721915,45.2198276 334.753137,45.647046 C335.784359,46.0741972 336.721467,46.7003361 337.510681,47.4896314 C338.299895,48.2789267 338.925754,49.2159838 339.352629,50.2472239 C339.780176,51.278464 340,52.3837866 340,53.5 Z" id="Path" stroke="#2F58CD" stroke-width="1.4"></path>
                <path d="M17,190.496588 C17.0006716,192.177889 16.5025331,193.821545 15.5687756,195.219828 C14.635018,196.618111 13.3079933,197.707831 11.7544198,198.351848 C10.2015185,198.995865 8.4926548,199.1646 6.84294927,198.837214 C5.19391599,198.509155 3.67933304,197.699764 2.49011989,196.511223 C1.30157898,195.322682 0.491515757,193.8081 0.163456956,192.159066 C-0.164601846,190.510033 0.0034610649,188.800497 0.646805886,187.247596 C1.29015071,185.694023 2.37987062,184.366326 3.77748178,183.432568 C5.1757652,182.498138 6.81942046,182 8.50072182,182 C10.7541093,182 12.9153983,182.895439 14.509307,184.488675 C16.1032156,186.081912 16.9986548,188.243201 17,190.496588 Z" id="Path" stroke="#2F58CD" stroke-width="1.4"></path>
                <path d="M355,173.000654 C354.999346,173.791503 354.764717,174.564706 354.325521,175.222876 C353.885672,175.880392 353.260863,176.39281 352.530178,176.695425 C351.799492,176.998039 350.994953,177.077778 350.219171,176.922876 C349.44339,176.768627 348.731004,176.387582 348.171552,175.828104 C347.6121,175.269281 347.231072,174.556209 347.07683,173.780392 C346.922589,173.004575 347.00167,172.200654 347.304271,171.469281 C347.606872,170.738562 348.11992,170.113725 348.777407,169.67451 C349.434893,169.234641 350.208061,169 350.999528,169 C352.060264,169 353.077865,169.421569 353.828158,170.171895 C354.578451,170.922222 355,171.939869 355,173.000654 Z" id="Path" stroke="#2F58CD" stroke-width="1.4"></path>
                <path d="M46,156.000654 C45.9993464,156.791503 45.7647166,157.564706 45.3255208,158.222876 C44.8856715,158.880392 44.2608633,159.39281 43.5301775,159.695425 C42.7994917,159.998039 41.9949531,160.077778 41.2191713,159.922876 C40.4433896,159.768627 39.7310036,159.387582 39.1715519,158.828104 C38.6121002,158.269281 38.2310717,157.556209 38.0768304,156.780392 C37.922589,156.004575 38.0016704,155.200654 38.304271,154.469281 C38.6068717,153.738562 39.1199203,153.113725 39.7774067,152.67451 C40.4348932,152.234641 41.2080607,152 41.9995281,152 C43.0602642,152 44.0778651,152.421569 44.8281578,153.171895 C45.5784505,153.922222 46,154.939869 46,156.000654 Z" id="Path" stroke="#2F58CD" stroke-width="1.4"></path>
                <path d="M182,280 C231.705826,280 272,276.865741 272,273 C272,269.134259 231.705826,266 182,266 C132.294832,266 92,269.134259 92,273 C92,276.865741 132.294832,280 182,280 Z" id="Path" fill-opacity="0.2" fill="#2F58CD" fill-rule="nonzero"></path>
                <path d="M179,239 L116,239 C113.790861,239 112,240.790861 112,243 C112,245.209139 113.790861,247 116,247 L179,247 C181.209139,247 183,245.209139 183,243 C183,240.790861 181.209139,239 179,239 Z" id="Path" stroke="#2F58CD" stroke-width="1.4" fill="#EADFFC" fill-rule="nonzero"></path>
                <g id="Group-3" transform="translate(130, 0)">
                    <g id="Group-2" transform="translate(13.1124, 13.1124)">
                        <path d="M69.32439,19.032796 C71.113095,18.2918901 73.122863,18.2918901 74.9115681,19.032796 L107.679506,32.6057204 C109.468211,33.3466263 110.889332,34.7677469 111.630238,36.5564519 L125.203162,69.32439 C125.944068,71.113095 125.944068,73.122863 125.203162,74.9115681 L111.630238,107.679506 C110.889332,109.468211 109.468211,110.889332 107.679506,111.630238 L74.9115681,125.203162 C73.122863,125.944068 71.113095,125.944068 69.32439,125.203162 L36.5564519,111.630238 C34.7677469,110.889332 33.3466263,109.468211 32.6057204,107.679506 L19.032796,74.9115681 C18.2918901,73.122863 18.2918901,71.113095 19.032796,69.32439 L32.6057204,36.5564519 C33.3466263,34.7677469 34.7677469,33.3466263 36.5564519,32.6057204 Z" id="Polygon" stroke="#2F58CD" stroke-width="1.4" fill="#E8EEFF" transform="translate(72.118, 72.118) rotate(23) translate(-72.118, -72.118)"></path>
                        <g id="Group" transform="translate(69.618, 46.618)">
                            <line x1="2.5" y1="-5.1484858e-15" x2="2.5" y2="40" id="Line-8" stroke="#2F58CD" stroke-width="5" stroke-linecap="round"></line>
                            <circle id="Oval" fill="#2F58CD" cx="2.5" cy="48.5" r="2.5"></circle>
                        </g>
                    </g>
                    <path d="M82.4367498,22.1451558 C84.2254548,21.40425 86.2352228,21.40425 88.0239279,22.1451558 L127.862934,38.6470124 C129.651639,39.3879183 131.072759,40.8090389 131.813665,42.5977439 L148.315522,82.4367498 C149.056428,84.2254548 149.056428,86.2352228 148.315522,88.0239279 L131.813665,127.862934 C131.072759,129.651639 129.651639,131.072759 127.862934,131.813665 L88.0239279,148.315522 C86.2352228,149.056428 84.2254548,149.056428 82.4367498,148.315522 L42.5977439,131.813665 C40.8090389,131.072759 39.3879183,129.651639 38.6470124,127.862934 L22.1451558,88.0239279 C21.40425,86.2352228 21.40425,84.2254548 22.1451558,82.4367498 L38.6470124,42.5977439 C39.3879183,40.8090389 40.8090389,39.3879183 42.5977439,38.6470124 Z" id="Polygon" stroke="#2F58CD" stroke-width="1.4" transform="translate(85.2303, 85.2303) rotate(23) translate(-85.2303, -85.2303)"></path>
                </g>
                <path d="M219.3,144.7 L219.3,239 C219.3,239.91127 218.930635,240.73627 218.333452,241.333452 C217.73627,241.930635 216.91127,242.3 216,242.3 L214,242.3 C213.08873,242.3 212.26373,241.930635 211.666548,241.333452 C211.069365,240.73627 210.7,239.91127 210.7,239 L210.7,144.7 L219.3,144.7 Z" id="Rectangle" stroke="#2F58CD" stroke-width="1.4" fill-opacity="0.2" fill="#2F58CD"></path>
                <g id="Group-4" transform="translate(125, 171)" fill-rule="nonzero" stroke="#2F58CD" stroke-width="1.4">
                    <path d="M18.5033428,0 L24.009915,2.22044605e-16 C24.4496416,9.22379476e-16 24.8377703,0.287248249 24.9662666,0.707781464 L32.6051554,25.7077815 C32.7665433,26.2359599 32.4692008,26.7949637 31.9410224,26.9563516 C31.8463148,26.98529 31.747834,27 31.6488039,27 L21.25,27 L21.25,27 L11.3274169,27 C10.7751322,27 10.3274169,26.5522847 10.3274169,26 C10.3274169,25.906674 10.3404812,25.8138074 10.3662295,25.7241036 L17.5421554,0.724103621 C17.6652127,0.295387889 18.0573156,1.19215689e-15 18.5033428,1.11022302e-15 Z" id="Rectangle" fill="#FFFFFF"></path>
                    <path d="M10.4492777,32 L34.02484,32 C34.457399,32 34.8409225,32.2781159 34.9753354,32.6892611 L38.5714892,43.6892611 C38.7431056,44.2142052 38.4566768,44.778879 37.9317328,44.9504953 C37.8314146,44.9832916 37.7265369,45 37.6209939,45 L21.25,45 L21.25,45 L6.43004696,45 C5.87776221,45 5.43004696,44.5522847 5.43004696,44 C5.43004696,43.8829291 5.45060414,43.7667676 5.49078204,43.656807 L9.51001281,32.656807 C9.65413358,32.2623713 10.0293368,32 10.4492777,32 Z" id="Rectangle-Copy" fill="#EADFFC"></path>
                    <path d="M5.44927773,50 L40.02484,50 C40.457399,50 40.8409225,50.2781159 40.9753354,50.6892611 L44.5714892,61.6892611 C44.7431056,62.2142052 44.4566768,62.778879 43.9317328,62.9504953 C43.8314146,62.9832916 43.7265369,63 43.6209939,63 L21.25,63 L21.25,63 L1.43004696,63 C0.877762214,63 0.430046964,62.5522847 0.430046964,62 C0.430046964,61.8829291 0.450604143,61.7667676 0.49078204,61.656807 L4.51001281,50.656807 C4.65413358,50.2623713 5.02933679,50 5.44927773,50 Z" id="Rectangle-Copy-2" fill="#FFFFFF"></path>
                </g>
            </g>
        </g>
    </g>
</svg>